<svg width="90" height="90" viewBox="0 0 90 90" fill="none" xmlns="http://www.w3.org/2000/svg">
<path fill-rule="evenodd" clip-rule="evenodd" d="M90 45C90 69.8528 69.8528 90 45 90C20.1472 90 0 69.8528 0 45C0 20.1472 20.1472 0 45 0C69.8528 0 90 20.1472 90 45ZM29.1621 27.4396C29.5851 25.8364 30.8257 24.5707 32.414 24.1489C33.1283 23.952 36.3251 23.952 37.0582 24.1395C38.6748 24.5614 39.9248 25.8176 40.3477 27.4396C40.5639 28.2458 40.5639 61.753 40.3477 62.5593C39.9248 64.1812 38.6748 65.4375 37.0582 65.8594C36.3063 66.0469 33.2035 66.0469 32.4516 65.8594C30.8351 65.4375 29.5851 64.1812 29.1621 62.5593C28.946 61.753 28.946 28.2458 29.1621 27.4396ZM49.6523 27.4396C50.0752 25.8364 51.3158 24.5707 52.9042 24.1489C53.6185 23.952 56.8153 23.952 57.5484 24.1395C59.1649 24.5614 60.4149 25.8176 60.8379 27.4396C61.054 28.2458 61.054 61.753 60.8379 62.5593C60.4149 64.1812 59.1649 65.4375 57.5484 65.8594C56.7965 66.0469 53.6937 66.0469 52.9418 65.8594C51.3252 65.4375 50.0752 64.1812 49.6523 62.5593C49.4361 61.753 49.4361 28.2458 49.6523 27.4396Z" fill="white"/>
</svg>
