<svg width="36" height="36" viewBox="0 0 36 36" fill="none" xmlns="http://www.w3.org/2000/svg">
<path d="M17.3602 0.0945223C16.9313 0.221142 16.404 0.699483 16.2001 1.14265L16.0314 1.49437V11.2863C16.0314 16.6747 16.0103 21.0853 15.9751 21.0853C15.947 21.0853 14.8783 20.0371 13.6058 18.7569C12.3261 17.4766 11.145 16.3511 10.9762 16.2526C10.5614 16.0064 9.781 15.9431 9.30291 16.126C8.90215 16.2807 8.41 16.7239 8.2061 17.1108C7.98112 17.5258 7.98815 18.4614 8.22017 18.9046C8.44515 19.3477 16.6431 27.5499 17.086 27.775C17.543 28.0142 18.457 28.0142 18.914 27.775C19.3569 27.5499 27.5548 19.3477 27.7798 18.9046C28.0118 18.4614 28.0189 17.5258 27.7939 17.1108C27.59 16.7239 27.0978 16.2807 26.6971 16.126C26.219 15.9431 25.4386 16.0064 25.0238 16.2526C24.855 16.3511 23.6738 17.4766 22.3942 18.7569C21.1217 20.0371 20.053 21.0853 20.0249 21.0853C19.9897 21.0853 19.9686 16.6747 19.9686 11.2863V1.49437L19.7999 1.14265C19.3851 0.235211 18.3375 -0.207958 17.3602 0.0945223Z" fill="white"/>
<path d="M1.5831 24.0327C0.908139 24.2085 0.29646 24.7643 0.11366 25.3833C-0.0199254 25.8265 -0.0410177 28.2041 0.0785058 29.0764C0.570661 32.6147 3.38298 35.4285 6.91947 35.9209C7.67879 36.0264 28.3212 36.0264 29.0805 35.9209C32.617 35.4285 35.4293 32.6147 35.9215 29.0764C36.041 28.2041 36.0199 25.8265 35.8863 25.3833C35.7528 24.9261 35.2887 24.3985 34.8177 24.1734C34.0654 23.8146 33.1092 24.0256 32.5186 24.6869C32.0546 25.2074 31.9913 25.4888 31.9913 27.0997C31.9913 29.0693 31.7804 29.7657 30.9156 30.6943C30.4375 31.2078 29.9875 31.5173 29.3336 31.7706L28.8626 31.9534L18.2109 31.9745C7.78426 31.9886 7.55224 31.9886 7.01087 31.8479C6.27264 31.665 5.76642 31.3626 5.1688 30.7646C4.22667 29.815 4.00872 29.1256 4.00872 27.0997C4.00872 25.4888 3.94544 25.2074 3.48141 24.6869C3.01035 24.1663 2.18071 23.8779 1.5831 24.0327Z" fill="white"/>
</svg>
