<svg width="42" height="36" viewBox="0 0 42 36" fill="none" xmlns="http://www.w3.org/2000/svg">
<path fill-rule="evenodd" clip-rule="evenodd" d="M42 10.4176C42 11.3984 42 12.3792 42 13.3599C41.619 15.9178 40.6483 18.2335 39.0879 20.3073C37.6393 22.16 36.0397 23.8899 34.2891 25.4973C30.2902 28.9371 26.2433 32.3154 22.1484 35.6322C21.3828 36.1226 20.6172 36.1226 19.8516 35.6322C15.7567 32.3154 11.7098 28.9371 7.71094 25.4973C5.96035 23.8899 4.36074 22.16 2.91211 20.3073C1.35658 18.2316 0.385877 15.9157 0 13.3599C0 12.3792 0 11.3984 0 10.4176C0.443732 6.57545 2.27576 3.59221 5.49609 1.46779C8.02412 0.0921032 10.7038 -0.316562 13.5352 0.241797C15.9387 0.812163 17.9484 2.02453 19.5645 3.87892C20.063 4.51829 20.5415 5.17215 21 5.84051C24.3455 0.655946 28.9939 -1.04683 34.9453 0.732195C38.534 2.25161 40.7762 4.90794 41.6719 8.70117C41.7917 9.28294 41.9011 9.85507 42 10.4176ZM11.0742 3.30679C13.6301 3.38718 15.6946 4.42247 17.2676 6.41264C18.3014 7.81869 19.1217 9.34432 19.7285 10.9897C20.2572 11.4557 20.8724 11.6056 21.5742 11.4392C21.8288 11.3216 22.0612 11.1717 22.2715 10.9897C22.704 9.97064 23.1688 8.96263 23.666 7.96557C24.7382 6.00765 26.3104 4.60457 28.3828 3.75632C31.4706 2.8397 34.1639 3.50719 36.4629 5.75878C38.4729 8.30648 39.1018 11.1671 38.3496 14.3407C37.9504 15.6265 37.3762 16.8253 36.627 17.937C35.3463 19.7043 33.8834 21.3253 32.2383 22.8001C28.5521 25.9965 24.8061 29.116 21 32.1585C17.1939 29.116 13.4479 25.9965 9.76172 22.8001C7.86177 21.072 6.20748 19.1512 4.79883 17.0379C2.94582 13.7145 2.89113 10.3635 4.63477 6.98477C6.12642 4.62725 8.27293 3.40125 11.0742 3.30679Z" fill="white"/>
</svg>
