<svg width="90" height="90" viewBox="0 0 90 90" fill="none" xmlns="http://www.w3.org/2000/svg">
<path fill-rule="evenodd" clip-rule="evenodd" d="M45 90C69.8528 90 90 69.8528 90 45C90 20.1472 69.8528 0 45 0C20.1472 0 0 20.1472 0 45C0 69.8528 20.1472 90 45 90ZM32.2776 25.9495C32.7067 25.5193 33.3309 25.1674 33.8849 25.05C34.3998 24.9405 35.4921 25.0188 36.0695 25.2065C36.3504 25.3003 36.8185 25.4959 37.1072 25.6445C37.7001 25.9339 64.0794 41.0915 64.7738 41.5295C65.4448 41.9597 66.3421 42.9139 66.6307 43.5083C67.3251 44.924 67.0365 46.324 65.7959 47.5832C65.476 47.9117 65.0157 48.3028 64.7738 48.4592C64.0794 48.8972 37.7001 64.0549 37.1072 64.3443C35.1878 65.3141 33.4401 65.2046 32.2776 64.0392C31.6066 63.3744 31.2087 62.3968 31.0761 61.1062C30.9746 60.0973 30.9746 29.8914 31.0761 28.8825C31.2087 27.592 31.6066 26.6143 32.2776 25.9495Z" fill="white"/>
</svg>
