<svg width="233" height="35" viewBox="0 0 233 35" fill="none" xmlns="http://www.w3.org/2000/svg">
<path d="M61.7224 22.73H62.0226C62.523 22.99 63.1234 23.24 63.8239 23.48C64.5244 23.72 65.2849 23.92 66.1054 24.08C66.946 24.22 67.7866 24.29 68.6272 24.29C69.5078 24.29 70.2383 24.23 70.8187 24.11C71.4191 23.99 71.8694 23.8 72.1696 23.54C72.4898 23.26 72.6499 22.89 72.6499 22.43C72.6499 21.85 72.4498 21.42 72.0495 21.14C71.6693 20.86 70.9788 20.64 69.9781 20.48L67.9967 20.18C66.5157 19.96 65.2549 19.58 64.2141 19.04C63.1934 18.5 62.4229 17.79 61.9026 16.91C61.3822 16.01 61.122 14.93 61.122 13.67C61.122 12.13 61.4823 10.81 62.2028 9.71C62.9433 8.61 64.064 7.77 65.5651 7.19C67.0661 6.59 68.9874 6.29 71.329 6.29C72.3697 6.29 73.3704 6.38 74.3311 6.56C75.2918 6.72 76.0923 6.94 76.7327 7.22V11.75H76.4025C75.8021 11.47 75.0316 11.21 74.0909 10.97C73.1503 10.73 72.0996 10.61 70.9388 10.61C69.9381 10.61 69.0875 10.71 68.387 10.91C67.7065 11.11 67.1862 11.42 66.8259 11.84C66.4657 12.24 66.2856 12.75 66.2856 13.37C66.2856 14.17 66.5457 14.74 67.0661 15.08C67.5865 15.42 68.427 15.69 69.5878 15.89L71.4791 16.19C72.6599 16.37 73.7307 16.69 74.6913 17.15C75.672 17.61 76.4425 18.25 77.0029 19.07C77.5833 19.89 77.8735 20.97 77.8735 22.31C77.8735 23.45 77.6334 24.43 77.153 25.25C76.6727 26.05 76.0022 26.7 75.1417 27.2C74.3011 27.68 73.3204 28.03 72.1996 28.25C71.0989 28.49 69.9081 28.61 68.6272 28.61C67.7266 28.61 66.8359 28.55 65.9553 28.43C65.0947 28.33 64.2942 28.19 63.5537 28.01C62.8132 27.83 62.2028 27.64 61.7224 27.44V22.73Z" fill="white"/>
<path d="M80.5648 20C80.5648 18.06 80.9251 16.46 81.6456 15.2C82.3661 13.92 83.3568 12.97 84.6176 12.35C85.8985 11.71 87.3695 11.39 89.0306 11.39C90.6718 11.39 92.1328 11.71 93.4137 12.35C94.6945 12.97 95.6952 13.92 96.4157 15.2C97.1362 16.46 97.4965 18.06 97.4965 20C97.4965 21.92 97.1362 23.52 96.4157 24.8C95.6952 26.06 94.6945 27.01 93.4137 27.65C92.1328 28.27 90.6718 28.58 89.0306 28.58C87.3695 28.58 85.8985 28.27 84.6176 27.65C83.3367 27.01 82.3361 26.06 81.6156 24.8C80.9151 23.52 80.5648 21.92 80.5648 20ZM85.9385 20C85.9385 21.56 86.1887 22.74 86.689 23.54C87.2094 24.34 87.9899 24.74 89.0306 24.74C90.0714 24.74 90.8419 24.34 91.3422 23.54C91.8626 22.74 92.1228 21.56 92.1228 20C92.1228 18.42 91.8626 17.23 91.3422 16.43C90.8419 15.63 90.0714 15.23 89.0306 15.23C87.9899 15.23 87.2094 15.63 86.689 16.43C86.1887 17.23 85.9385 18.42 85.9385 20Z" fill="white"/>
<path d="M109.245 28.61C108.204 28.61 107.183 28.5 106.183 28.28C105.182 28.06 104.281 27.68 103.481 27.14C102.7 26.58 102.08 25.82 101.62 24.86C101.159 23.88 100.929 22.63 100.929 21.11V16.85C100.929 16.45 100.919 15.94 100.899 15.32C100.879 14.7 100.849 14.1 100.809 13.52C100.769 12.92 100.699 12.44 100.599 12.08L100.719 11.84H106.213V20.96C106.213 21.88 106.353 22.6 106.633 23.12C106.933 23.62 107.334 23.97 107.834 24.17C108.354 24.35 108.965 24.44 109.665 24.44C110.226 24.44 110.756 24.38 111.256 24.26C111.757 24.12 112.207 23.99 112.607 23.87L111.887 25.01C111.747 24.71 111.647 24.32 111.586 23.84C111.526 23.36 111.496 22.76 111.496 22.04V16.85C111.496 16.45 111.486 15.94 111.466 15.32C111.446 14.7 111.406 14.1 111.346 13.52C111.306 12.92 111.246 12.44 111.166 12.08L111.256 11.84H116.78V21.95C116.78 22.35 116.78 22.87 116.78 23.51C116.8 24.13 116.83 24.74 116.87 25.34C116.93 25.94 117 26.42 117.08 26.78L116.99 27.02C116.33 27.3 115.569 27.56 114.709 27.8C113.868 28.04 112.977 28.23 112.037 28.37C111.116 28.53 110.186 28.61 109.245 28.61Z" fill="white"/>
<path d="M121.338 28.25V18.11C121.338 17.71 121.328 17.2 121.308 16.58C121.308 15.94 121.278 15.32 121.218 14.72C121.178 14.1 121.118 13.61 121.038 13.25L121.128 13.01C121.788 12.73 122.539 12.47 123.379 12.23C124.24 11.99 125.141 11.79 126.081 11.63C127.042 11.47 127.993 11.39 128.933 11.39C129.974 11.39 130.985 11.5 131.965 11.72C132.946 11.94 133.827 12.33 134.607 12.89C135.408 13.43 136.038 14.19 136.498 15.17C136.959 16.15 137.189 17.39 137.189 18.89V28.25H131.905V19.07C131.905 18.13 131.765 17.41 131.485 16.91C131.205 16.41 130.805 16.06 130.284 15.86C129.784 15.66 129.203 15.56 128.543 15.56C127.963 15.56 127.412 15.63 126.892 15.77C126.371 15.91 125.901 16.05 125.481 16.19L126.231 15.02C126.371 15.32 126.472 15.72 126.532 16.22C126.592 16.7 126.622 17.31 126.622 18.05V28.25H121.338Z" fill="white"/>
<path d="M149.973 28.61C148.072 28.61 146.411 28.32 144.99 27.74C143.589 27.16 142.498 26.24 141.718 24.98C140.957 23.7 140.577 22.04 140.577 20C140.577 18.22 140.927 16.7 141.628 15.44C142.348 14.16 143.359 13.18 144.66 12.5C145.98 11.8 147.522 11.44 149.283 11.42C150.043 11.4 150.694 11.46 151.234 11.6C151.774 11.72 152.145 11.82 152.345 11.9L152.315 15.74C152.035 15.64 151.724 15.55 151.384 15.47C151.064 15.37 150.664 15.32 150.183 15.32C148.742 15.32 147.672 15.74 146.971 16.58C146.291 17.4 145.95 18.54 145.95 20C145.95 20.92 146.091 21.74 146.371 22.46C146.651 23.16 147.101 23.71 147.722 24.11C148.342 24.51 149.143 24.71 150.123 24.71C150.684 24.71 151.144 24.67 151.504 24.59C151.865 24.51 152.175 24.42 152.435 24.32L152.075 25.61C151.855 25.27 151.724 24.86 151.684 24.38C151.644 23.88 151.624 23.34 151.624 22.76V11C151.624 10.48 151.604 9.87 151.564 9.17C151.544 8.45 151.514 7.77 151.474 7.13C151.434 6.47 151.374 5.99 151.294 5.69L151.384 5.45H156.908V22.43C156.908 22.83 156.908 23.34 156.908 23.96C156.928 24.56 156.948 25.16 156.968 25.76C157.008 26.34 157.068 26.81 157.148 27.17L157.028 27.41C156.188 27.75 155.177 28.03 153.996 28.25C152.835 28.49 151.494 28.61 149.973 28.61Z" fill="white"/>
<path d="M161.473 28.25V6.65H166.817V28.25H161.473ZM164.355 21.2V16.82H174.232V21.2H164.355ZM164.355 11.27V6.65H175.733V11.27H164.355Z" fill="white"/>
<path d="M179.298 28.25V10.46C179.298 10.04 179.288 9.53 179.268 8.93C179.268 8.31 179.238 7.71 179.178 7.13C179.138 6.53 179.078 6.05 178.998 5.69L179.088 5.45H184.581V28.25H179.298Z" fill="white"/>
<path d="M188.041 20C188.041 18.06 188.401 16.46 189.122 15.2C189.842 13.92 190.833 12.97 192.094 12.35C193.375 11.71 194.846 11.39 196.507 11.39C198.148 11.39 199.609 11.71 200.89 12.35C202.171 12.97 203.171 13.92 203.892 15.2C204.612 16.46 204.973 18.06 204.973 20C204.973 21.92 204.612 23.52 203.892 24.8C203.171 26.06 202.171 27.01 200.89 27.65C199.609 28.27 198.148 28.58 196.507 28.58C194.846 28.58 193.375 28.27 192.094 27.65C190.813 27.01 189.812 26.06 189.092 24.8C188.391 23.52 188.041 21.92 188.041 20ZM193.415 20C193.415 21.56 193.665 22.74 194.165 23.54C194.686 24.34 195.466 24.74 196.507 24.74C197.548 24.74 198.318 24.34 198.818 23.54C199.339 22.74 199.599 21.56 199.599 20C199.599 18.42 199.339 17.23 198.818 16.43C198.318 15.63 197.548 15.23 196.507 15.23C195.466 15.23 194.686 15.63 194.165 16.43C193.665 17.23 193.415 18.42 193.415 20Z" fill="white"/>
<path d="M210.845 28.25L206.162 12.2V11.84H211.805L214.838 25.07L213.757 25.04L217.689 11.84H221.412L225.375 25.1L224.264 25.13L227.386 11.84H233V12.2L228.107 28.25H222.163L218.8 17.09H220.031L216.669 28.25H210.845Z" fill="white"/>
<path d="M15.9621 0.151628C15.3152 0.408393 14.7135 0.937026 14.2621 1.6318C13.9763 2.08491 12.7727 5.54368 10.832 11.4644C9.1771 16.4939 7.79302 20.7834 7.73284 21.01C7.6877 21.2516 7.58239 21.4329 7.52222 21.4329C7.46204 21.4329 6.67973 20.2095 5.80715 18.7293C4.8744 17.1585 4.03191 15.92 3.80624 15.769C2.33189 14.8023 0 15.9955 0 17.7325C0 18.4574 0.0601777 18.5632 2.66286 22.9584C4.76909 26.5078 5.62662 27.5952 6.69477 28.0937C7.79302 28.6072 8.95144 28.3806 9.9895 27.4593C10.7869 26.7494 10.9674 26.3567 12.3816 21.9615C13.0134 20.0433 14.1869 16.5241 15.0143 14.1075C16.3984 10.0748 16.5188 9.77275 16.6091 10.3316C16.6542 10.6639 16.94 13.2466 17.2259 16.071C19.0162 33.229 18.9861 33.0628 19.9489 34.0143C20.5808 34.6487 21.1525 34.9055 22.1454 34.981C23.2888 35.0867 24.1614 34.7544 24.9437 33.9086C25.6056 33.1836 25.8012 32.7003 26.5384 29.9665C27.6216 25.9036 29.9535 17.5965 30.0738 17.3851C30.1791 17.2038 30.2393 17.2793 30.3145 17.672C30.6606 19.3032 32.7216 26.1453 33.0376 26.6588C33.7597 27.9275 34.7827 28.4562 36.242 28.3504C38.0925 28.2145 38.604 27.6556 41.6731 22.3391C43.8846 18.5178 43.7793 18.7444 43.7793 17.9892C43.7793 16.6148 42.6961 15.5273 41.312 15.5122C40.0182 15.482 39.7624 15.769 37.6111 19.5147C37.0093 20.572 36.4677 21.3876 36.4075 21.3272C36.3022 21.2063 34.8279 16.1919 34.0155 13.2013C33.4588 11.117 33.2181 10.5581 32.6163 9.87848C31.9243 9.07797 31.0818 8.68528 30.0889 8.68528C29.0358 8.70038 28.2234 9.10818 27.3959 10.0446C26.6587 10.8904 26.3578 11.7665 24.733 17.8533C23.4844 22.5959 22.9879 24.3177 22.9277 24.2724C22.8976 24.2271 22.2808 18.6236 21.2126 8.74569C20.8817 5.63431 20.5507 2.8401 20.4604 2.53803C20.0542 1.10317 18.5648 -0.0296172 17.0905 0.000590359C16.6692 0.000590359 16.1577 0.0761094 15.9621 0.151628Z" fill="white"/>
</svg>
