<svg width="26" height="26" viewBox="0 0 26 26" fill="none" xmlns="http://www.w3.org/2000/svg">
<path d="M0 9.40949C0 6.11588 0 4.46906 0.640984 3.21106C1.20481 2.10449 2.10449 1.20481 3.21106 0.640984C4.46906 0 6.11588 0 9.40949 0H16.5905C19.8841 0 21.531 0 22.7889 0.640984C23.8955 1.20481 24.7952 2.10449 25.359 3.21106C26 4.46906 26 6.11588 26 9.40949V16.5905C26 19.8841 26 21.531 25.359 22.7889C24.7952 23.8955 23.8955 24.7952 22.7889 25.359C21.531 26 19.8841 26 16.5905 26H9.40949C6.11588 26 4.46906 26 3.21106 25.359C2.10449 24.7952 1.20481 23.8955 0.640984 22.7889C0 21.531 0 19.8841 0 16.5905V9.40949Z" fill="#00005B"/>
<path d="M10.9472 16.3092H6.91823L6.09848 18.9261C6.07572 19.0231 5.98636 19.0918 5.88917 19.0871H3.8485C3.73213 19.0871 3.69143 19.0215 3.72641 18.8903L7.21471 8.62884C7.24963 8.52159 7.28448 8.41667 7.3194 8.27942C7.36502 8.04069 7.38838 7.79814 7.38916 7.55495C7.37917 7.48308 7.4412 7.41942 7.51121 7.42969H10.2845C10.3657 7.42969 10.4122 7.45949 10.424 7.51911L14.3833 18.9081C14.4181 19.0275 14.3832 19.0872 14.2786 19.0871H12.0112C11.9317 19.0961 11.8557 19.0416 11.8368 18.9618L10.9472 16.3092ZM7.54613 14.1029H10.3019C9.84917 12.5557 9.33818 11.0289 8.92404 9.46967C8.45474 11.0871 8.02137 12.5871 7.54613 14.1029Z" fill="#9999FF"/>
<path d="M17.3279 15.2989C17.4883 16.6276 18.604 17.261 19.8395 17.234C20.5362 17.2204 21.2807 17.1122 21.9317 16.8487C21.9897 16.8013 22.0189 16.8309 22.0189 16.9383V18.6376C22.0244 18.726 21.9875 18.8051 21.9143 18.8523C21.1051 19.2198 20.1764 19.3307 19.2988 19.3166C16.6823 19.3166 14.8854 17.473 14.8861 14.7908C14.8792 12.2489 16.5283 10.1044 19.0895 10.1044C21.2606 10.0482 22.7637 11.7864 22.7697 13.95C22.7697 14.344 22.7477 14.7395 22.7 15.1306C22.6907 15.2112 22.622 15.2738 22.5429 15.2738C20.809 15.2738 19.0666 15.2989 17.3279 15.2989ZM17.3279 13.6692C18.2943 13.6692 19.2662 13.7034 20.2319 13.6603C20.377 13.6455 20.4848 13.6179 20.4848 13.467C20.4647 12.6649 19.7878 12.0051 19.0023 12.0359C18.0533 11.977 17.4459 12.7782 17.3279 13.6692Z" fill="#9999FF"/>
</svg>
