<svg width="33" height="26" viewBox="0 0 33 26" fill="none" xmlns="http://www.w3.org/2000/svg">
<path d="M17.5852 14.6189C17.645 13.5513 18.1678 12.6108 18.9565 11.9441C19.7299 11.2892 20.7709 10.889 21.9067 10.889C23.0415 10.889 24.0825 11.2892 24.8565 11.9441C25.6446 12.6108 26.1673 13.5513 26.2277 14.6177C26.2876 15.7146 25.8467 16.7336 25.0732 17.489C24.2846 18.2573 23.1628 18.7394 21.9067 18.7394C20.6506 18.7394 19.5266 18.2573 18.7385 17.489C17.9646 16.7336 17.5248 15.7146 17.5852 14.6189Z" fill="#265787"/>
<path d="M10.7035 16.776C10.7108 17.1937 10.844 18.0055 11.0439 18.6395C11.4639 19.9814 12.1763 21.2228 13.1677 22.3169C14.185 23.4415 15.4377 24.3447 16.8846 24.9861C18.4055 25.6596 20.0534 26.0028 21.765 26C23.4739 25.9977 25.1218 25.6477 26.6427 24.9691C28.0896 24.3216 29.3412 23.4144 30.3568 22.2893C31.3475 21.1907 32.0589 19.947 32.48 18.6051C32.6917 17.9271 32.8255 17.2389 32.8791 16.5485C32.9316 15.8682 32.9096 15.1868 32.8131 14.506C32.6245 13.1793 32.1656 11.9345 31.4587 10.7998C30.8123 9.75706 29.9791 8.84421 28.9883 8.07587L28.9906 8.07417L18.992 0.397001C18.983 0.390227 18.9757 0.382899 18.9661 0.376689C18.3101 -0.12688 17.207 -0.125183 16.4855 0.379515C15.7561 0.889858 15.6725 1.73383 16.3218 2.26619L16.3189 2.26902L20.4892 5.6602L7.77859 5.67376H7.76166C6.71105 5.67488 5.70109 6.36418 5.50124 7.23526C5.29575 8.12272 6.00932 8.85888 7.10171 8.86283L7.10002 8.86679L13.5425 8.85437L2.04626 17.6787C2.03158 17.6894 2.01577 17.7007 2.00222 17.7114C0.917742 18.5419 0.567171 19.9227 1.25026 20.7966C1.94352 21.6852 3.41753 21.6869 4.5133 20.8017L10.7876 15.6667C10.7876 15.6667 10.6961 16.3599 10.7035 16.776ZM26.8261 19.0974C25.5333 20.4144 23.7234 21.1613 21.765 21.1653C19.8038 21.1687 17.9939 20.4285 16.7011 19.1137C16.0694 18.473 15.6054 17.7357 15.3191 16.9504C15.0386 16.1787 14.9296 15.3595 15.0019 14.5331C15.0702 13.7252 15.3107 12.9546 15.6946 12.2574C16.0717 11.5721 16.5911 10.9528 17.2324 10.4289C18.489 9.4048 20.0889 8.85041 21.7622 8.84815C23.4372 8.84589 25.036 9.39519 26.2938 10.4159C26.934 10.9375 27.4528 11.5546 27.8299 12.2388C28.2155 12.9354 28.4543 13.7032 28.5254 14.5133C28.5965 15.3387 28.4876 16.1567 28.207 16.929C27.9202 17.7165 27.4579 18.4538 26.8261 19.0974Z" fill="#EA7600"/>
</svg>
