<svg width="30" height="23" viewBox="0 0 30 23" fill="none" xmlns="http://www.w3.org/2000/svg">
<path d="M4.48254 0.00662076C4.45324 0.0124801 4.35363 0.0359173 4.26574 0.0534952C4.02551 0.106229 3.70911 0.410913 3.60364 0.69216C3.52161 0.914814 3.51575 1.76441 3.52747 9.24089L3.54505 17.5377L3.72669 17.7662C4.04895 18.1646 4.18957 18.2115 5.19151 18.2584C6.22861 18.3111 6.51572 18.3404 7.47079 18.4927C10.0489 18.9146 12.2813 19.9693 13.9043 21.5279L14.1797 21.7915V13.36C14.1797 8.71941 14.1563 4.82297 14.127 4.69993C13.9863 4.10228 12.6094 2.57886 11.6016 1.90504C10.1075 0.914814 8.19734 0.27029 6.21103 0.0945104C5.45518 0.0241987 4.57043 -0.0168165 4.48254 0.00662076Z" fill="white"/>
<path d="M24.5214 0.0300602C22.0605 0.176543 20.0976 0.780052 18.3984 1.9109C17.3906 2.573 16.0137 4.10228 15.873 4.69993C15.8437 4.82298 15.8203 8.71942 15.8203 13.3541V21.7857L16.1308 21.4986C17.8008 19.9283 19.957 18.9146 22.5292 18.4927C23.4843 18.3404 23.7714 18.3111 24.8085 18.2584C25.8104 18.2115 25.9511 18.1646 26.2733 17.7662L26.455 17.5377L26.4725 9.27019C26.4842 3.49877 26.4725 0.932394 26.4257 0.780052C26.3553 0.522242 26.121 0.235136 25.9042 0.123809C25.6698 0.000763646 25.3534 -0.0168143 24.5214 0.0300602Z" fill="white"/>
<path d="M0.615392 3.83275C0.334145 3.96165 0.2111 4.09056 0.0880543 4.38352C0.0118832 4.57102 0.000164622 5.60226 0.000164622 13.3014C0.000164622 22.7583 -0.0174133 22.2251 0.310708 22.5767C0.627111 22.9224 0.97281 22.9634 1.88686 22.77C5.38487 22.0376 9.06452 21.938 11.8653 22.5005C12.2461 22.5767 12.5742 22.6353 12.586 22.6236C12.6211 22.5825 12.0293 22.0962 11.543 21.774C10.3301 20.9654 8.76569 20.3912 6.95517 20.0923C6.67392 20.0455 5.88291 19.9751 5.19737 19.9283C4.43566 19.8755 3.86145 19.8111 3.70911 19.7525C2.8888 19.4595 2.24428 18.7857 1.99233 17.9654C1.881 17.608 1.87514 17.3853 1.87514 10.6588V3.72142H1.36538C0.990388 3.72142 0.785312 3.75658 0.615392 3.83275Z" fill="white"/>
<path d="M28.1249 10.6588C28.1249 17.3853 28.119 17.608 28.0077 17.9654C27.7557 18.7857 27.1112 19.4595 26.2909 19.7525C26.1385 19.8111 25.5761 19.8755 24.8143 19.9283C24.1405 19.9693 23.4023 20.0337 23.1737 20.0689C21.3574 20.3501 19.6757 20.9595 18.457 21.774C17.9765 22.0962 17.3789 22.5825 17.414 22.6236C17.4258 22.6353 17.7539 22.5767 18.1347 22.5005C20.9355 21.938 24.6151 22.0376 28.1131 22.77C29.0272 22.9634 29.3729 22.9224 29.6893 22.5767C30.0174 22.2251 29.9998 22.7583 29.9998 13.2897C29.9998 4.95774 29.994 4.5593 29.8885 4.33665C29.6776 3.87962 29.3553 3.72142 28.6229 3.72142H28.1249V10.6588Z" fill="white"/>
</svg>
