<svg width="25" height="37" viewBox="0 0 25 37" fill="none" xmlns="http://www.w3.org/2000/svg">
<path d="M17.029 0.165332C16.7196 0.373996 16.5757 0.769737 16.6405 1.24463C16.6764 1.53244 16.8563 2.11526 16.9355 2.22319C16.9499 2.23758 17.1082 2.11526 17.2952 1.95696C17.7701 1.53244 18.3026 1.34536 19.0293 1.34536C19.5618 1.33817 19.6625 1.35975 20.1518 1.60439C20.8353 1.94257 21.2023 2.34551 21.5117 3.10102L21.7419 3.66945L21.9578 3.49676C22.3248 3.21614 22.5046 2.83479 22.5046 2.31673C22.5046 2.0505 22.4615 1.75549 22.3967 1.62598C22.2096 1.23024 21.9938 1.15109 20.454 0.928034C20.0366 0.870471 19.6985 0.755347 19.1588 0.496316C18.0579 -0.0361369 17.4607 -0.129676 17.029 0.165332Z" fill="white"/>
<path d="M11.6253 2.62613C10.3158 2.98589 9.40918 4.39617 9.62504 5.7273C9.85529 7.12319 11.0137 8.13054 12.3952 8.13054C14.1077 8.13054 15.4317 6.59074 15.1654 4.90704C14.8992 3.23053 13.2587 2.17282 11.6253 2.62613Z" fill="white"/>
<path d="M5.2503 2.6693C5.12078 2.71247 4.89053 2.86357 4.74663 3.00748C4.50199 3.25212 4.39406 3.51834 3.34354 6.62671C2.71755 8.46871 2.19229 10.0949 2.16351 10.2316C2.11314 10.5697 2.24985 10.9583 2.52328 11.2749C2.91902 11.7282 2.92621 11.7282 5.99141 11.7282H8.76161V18.8156L6.29362 19.4559C4.9409 19.8085 3.61696 20.1611 3.34354 20.2402C2.77511 20.4129 2.329 20.7583 2.13473 21.1828C1.8685 21.7728 1.90448 21.9311 3.14927 25.241C3.78965 26.9319 4.38686 28.4501 4.48759 28.6156C4.81858 29.1912 5.60287 29.479 6.3152 29.2847C6.98437 29.1048 7.5384 28.263 7.44486 27.5651C7.43047 27.4139 7.04912 26.3275 6.61021 25.1474C6.1641 23.9674 5.81873 22.996 5.83312 22.9816C5.84751 22.9673 6.59582 22.7586 7.49523 22.5211L9.13576 22.0894H12.8413L13.676 24.4927L14.5035 26.8959L13.64 30.8821C13.1723 33.0695 12.7838 35.0266 12.7838 35.2352C12.7766 36.3649 13.9638 37.1564 14.9927 36.7031C15.4101 36.516 15.6403 36.3145 15.813 35.9764C15.885 35.8397 16.367 33.7386 16.8923 31.3066C17.6334 27.8601 17.8349 26.8311 17.7989 26.5937C17.7701 26.4354 17.3456 25.1258 16.8563 23.7012L15.9569 21.0965V11.8073L18.7487 11.7857C21.1807 11.7642 21.5621 11.7498 21.7491 11.6418C22.0369 11.4835 22.3319 11.167 22.4255 10.9151C22.5982 10.4546 22.519 10.1308 21.4181 6.85696C20.8209 5.08692 20.2813 3.53273 20.2237 3.41761C19.9647 2.89955 19.5761 2.65491 19.0221 2.64771C18.6048 2.64052 18.317 2.77003 18.0364 3.07223C17.5039 3.64786 17.5255 3.82774 18.4753 6.66269C18.9142 7.95785 19.2668 9.02994 19.2668 9.05153C19.2668 9.1019 5.51652 9.00836 5.47335 8.96519C5.45177 8.9436 5.79714 7.8715 6.23605 6.58354C6.71094 5.18765 7.03473 4.12275 7.03473 3.95726C7.03473 3.41041 6.73972 2.9715 6.20727 2.72686C5.89068 2.58295 5.61726 2.56856 5.2503 2.6693Z" fill="white"/>
<path d="M1.48715 13.7357C0.674083 13.9947 0.120045 14.5559 0.0121154 15.2251C-0.0526424 15.664 0.148826 16.2972 0.458224 16.6066L0.702865 16.8512L1.30007 16.8081C1.62386 16.7793 2.329 16.7289 2.86146 16.6929C3.96234 16.621 4.50199 16.4771 4.81138 16.1749C5.12078 15.8655 5.14956 15.5489 4.91931 15.074C4.56674 14.3689 3.76806 13.822 2.85426 13.6781C2.22827 13.5702 1.96204 13.5846 1.48715 13.7357Z" fill="white"/>
<path d="M21.3894 25.9389C20.7418 26.126 19.864 26.6081 19.461 27.0038C19.0077 27.4499 18.835 27.7881 18.835 28.227C18.835 28.6443 19.1516 29.2631 19.4754 29.479C19.8352 29.7236 20.1662 29.6877 21.1231 29.3063C21.8786 29.0113 22.0513 28.9681 22.7924 28.9106C23.8358 28.8314 24.3898 28.6803 24.6992 28.3853C24.9942 28.1119 25.059 27.8816 24.951 27.4787C24.8287 27.0254 24.0588 26.2843 23.476 26.054C22.9364 25.8382 21.929 25.7806 21.3894 25.9389Z" fill="white"/>
<path d="M7.89097 29.8316C7.71109 30.0546 7.19303 30.3568 6.76131 30.5007C5.90507 30.7885 4.92651 30.6518 4.18539 30.1482C3.89758 29.9467 3.81843 29.9251 3.54501 29.9611C2.97658 30.0474 2.57364 30.436 2.57364 30.9037C2.57364 31.249 2.89743 31.8535 3.30756 32.2564C3.72489 32.6737 4.14942 32.8968 4.81858 33.0695C6.09215 33.4004 8.25793 32.573 8.66087 31.616C8.91271 31.0044 8.62489 30.069 8.10683 29.7812C8.02049 29.738 7.95573 29.7524 7.89097 29.8316Z" fill="white"/>
</svg>
