<svg width="31" height="29" viewBox="0 0 31 29" fill="none" xmlns="http://www.w3.org/2000/svg">
<path d="M27.6175 0.0798931C27.2359 0.188909 27.2904 0.158627 23.5415 2.31473C21.1673 3.68349 20.1196 4.31942 20.0287 4.4466C19.9318 4.57984 19.8955 4.71914 19.8955 4.9614C19.8955 5.26422 19.9318 5.36113 20.277 5.93649L20.6586 6.58453L18.3814 11.5872L9.50865 16.7109C2.30146 20.8717 0.611703 21.871 0.502686 22.0346C0.405783 22.1739 0.363388 22.3313 0.363388 22.5191C0.363388 22.7735 0.466348 22.9794 1.39299 24.5843C1.96229 25.5594 2.5316 26.5042 2.66484 26.6859C3.1857 27.3703 4.16685 28.0062 5.08743 28.2545C5.35391 28.3272 5.71124 28.3636 6.20787 28.3636C7.00733 28.3696 7.46156 28.2788 8.08538 27.982C8.73947 27.6792 20.2528 20.9989 20.6162 20.7143C21.2945 20.1813 21.9002 19.2425 22.1485 18.3462C22.2272 18.0494 22.2575 17.7466 22.2514 17.1349C22.2454 15.9902 22.1545 15.7358 21.0159 13.7554L20.1075 12.1746L20.9311 10.3577L21.7609 8.54077L21.9244 8.71641C22.0152 8.81331 22.1667 8.92233 22.2514 8.95866C22.633 9.10402 22.7602 9.04951 24.5347 8.03203C30.0158 4.88872 29.8099 5.00985 30.1915 4.62829C31.0273 3.79856 31.2332 2.58121 30.7244 1.52133C30.5064 1.07315 29.925 0.485676 29.495 0.285813C28.8833 0.00115913 28.1807 -0.0775749 27.6175 0.0798931Z" fill="white"/>
<path d="M5.9959 3.68349C5.74153 3.81673 5.51138 4.18617 5.51138 4.47083C5.51138 4.77365 5.73547 5.12492 6.02618 5.26422C6.329 5.40958 6.46225 5.41563 6.78324 5.28845C7.07395 5.17338 7.32832 4.79182 7.32832 4.47083C7.32226 4.01054 6.88014 3.56841 6.41985 3.56841C6.30478 3.56841 6.11097 3.61687 5.9959 3.68349Z" fill="white"/>
<path d="M14.3417 4.28913C13.621 4.51928 13.082 4.99168 12.761 5.67001C12.6096 5.99706 12.5732 6.17269 12.5369 6.68144C12.4945 7.39004 12.3915 7.60202 11.9918 7.80794C11.689 7.95935 11.477 7.95935 11.0591 7.80188C10.6594 7.64441 10.3868 7.68075 10.1143 7.9109C9.52681 8.40147 9.64794 8.97683 10.508 9.83685C11.3619 10.6908 12.1129 11.0239 13.2939 11.0663C14.1358 11.0966 14.5476 11.0179 15.2502 10.6848C16.2979 10.1881 17.0671 9.30994 17.4184 8.20161C17.697 7.31131 17.6728 6.28777 17.3518 5.58522C16.8612 4.50717 15.4924 3.91969 14.3417 4.28913Z" fill="white"/>
<path d="M3.63388 7.78371C2.45287 8.03808 1.44749 8.71035 0.775227 9.70361C-0.127186 11.03 -0.242258 12.8045 0.47846 14.2399C0.648041 14.5851 0.751001 14.7062 0.938752 14.8153C1.4051 15.0757 1.45961 15.0575 3.13725 14.0945C3.71261 13.7614 4.20318 13.5071 4.22741 13.5252C4.24558 13.5495 4.58474 14.1188 4.97236 14.791C5.57194 15.8327 5.71124 16.0326 5.91111 16.1477C6.35928 16.4081 6.88014 16.2628 7.14057 15.8025C7.37071 15.3846 7.31621 15.2089 6.5107 13.8159C6.11097 13.1195 5.82026 12.5623 5.85054 12.532C5.88082 12.5077 6.41379 12.1928 7.03761 11.8355C8.26101 11.139 8.43665 10.9997 8.54567 10.6726C8.63652 10.3819 8.57595 10.1215 8.30947 9.70966C7.33438 8.20161 5.39025 7.40215 3.63388 7.78371Z" fill="white"/>
<path d="M0.484517 17.3105C0.230146 17.4438 0 17.8132 0 18.0979C0 18.4007 0.224089 18.752 0.514799 18.8913C0.817622 19.0366 0.950865 19.0427 1.27186 18.9155C1.56257 18.8004 1.81694 18.4189 1.81694 18.0979C1.81088 17.6376 1.36876 17.1955 0.908469 17.1955C0.793397 17.1955 0.59959 17.2439 0.484517 17.3105Z" fill="white"/>
</svg>
