<svg width="10" height="10" viewBox="0 0 10 10" fill="none" xmlns="http://www.w3.org/2000/svg">
<path d="M4.99967 2.0627C4.51757 2.06259 4.04286 2.18137 3.61761 2.40849C3.19235 2.63561 2.82965 2.96405 2.56161 3.36479C2.29358 3.76551 2.12846 4.22618 2.08091 4.70593C2.03336 5.1857 2.10487 5.66978 2.28903 6.11532C2.47319 6.56087 2.76438 6.95417 3.13681 7.26033C3.50918 7.56645 3.95135 7.77614 4.42414 7.87068C4.89688 7.96516 5.38558 7.94164 5.84705 7.80225C6.30865 7.66283 6.72864 7.41175 7.06996 7.07131C7.26547 6.8763 7.26588 6.55971 7.07087 6.3642C6.87586 6.16869 6.55928 6.16828 6.36376 6.36329C6.13881 6.58766 5.86204 6.75311 5.5579 6.84497C5.25377 6.93684 4.93171 6.95234 4.62017 6.89008C4.30865 6.82779 4.01729 6.68962 3.77184 6.48785C3.52645 6.28612 3.33455 6.02694 3.21319 5.73332C3.09182 5.43969 3.04471 5.12068 3.07604 4.80456C3.10737 4.48842 3.21619 4.18482 3.39282 3.92075C3.56945 3.65668 3.80846 3.44024 4.08871 3.29057C4.3688 3.14098 4.68144 3.06271 4.99895 3.0627C5.51086 3.06396 6.00134 3.26829 6.36275 3.63084C6.5577 3.82641 6.87428 3.82691 7.06985 3.63196C7.26542 3.43701 7.26592 3.12043 7.07097 2.92485C6.52237 2.37452 5.77777 2.06442 5.00067 2.0627H4.99967Z" fill="white"/>
<path fill-rule="evenodd" clip-rule="evenodd" d="M5 0C2.23858 0 0 2.23857 0 5C0 7.7614 2.23858 10 5 10C7.76141 10 10 7.76141 10 5C10 2.23857 7.76141 0 5 0ZM5 1C2.79086 1 1 2.79086 1 5C1 7.20912 2.79086 9 5 9C7.20912 9 9 7.20912 9 5C9 2.79086 7.20912 1 5 1Z" fill="white"/>
</svg>
