<svg width="23" height="26" viewBox="0 0 23 26" fill="none" xmlns="http://www.w3.org/2000/svg">
<path d="M11.4859 26L2.09314 23.4009L0 0H23L20.9046 23.3973L11.4859 26Z" fill="#264DE4"/>
<path d="M19.1108 21.9074L20.9014 1.91337H11.5V24.0106L19.1108 21.9074Z" fill="#2965F1"/>
<path d="M4.79848 10.5925L5.05655 13.4624H11.5V10.5925H4.79848Z" fill="#EBEBEB"/>
<path d="M4.27993 4.78344L4.54168 7.6535H11.5V4.78344H4.27993Z" fill="#EBEBEB"/>
<path d="M11.5 18.0462L11.4874 18.0496L8.28062 17.1865L8.07562 14.8975H5.1852L5.5886 19.4039L11.4867 21.0359L11.5 21.0323V18.0462Z" fill="#EBEBEB"/>
<path d="M18.1831 10.5925L18.7029 4.78344H11.49V7.6535H15.5474L15.2854 10.5925H11.49V13.4624H15.0357L14.7014 17.1847L11.49 18.0486V21.0345L17.3929 19.4039L18.1128 11.3631L18.1831 10.5925Z" fill="white"/>
</svg>
