<svg width="28" height="36" viewBox="0 0 28 36" fill="none" xmlns="http://www.w3.org/2000/svg">
<path fill-rule="evenodd" clip-rule="evenodd" d="M14 0.777771C14.6904 0.777771 15.25 1.33742 15.25 2.02777V22.8842L24.288 14.9759C24.8075 14.5213 25.5972 14.574 26.0518 15.0935C26.5064 15.6131 26.4538 16.4028 25.9342 16.8574L14.8231 26.5796C14.3518 26.992 13.6482 26.992 13.1769 26.5796L2.06576 16.8574C1.54621 16.4028 1.49357 15.6131 1.94817 15.0935C2.40277 14.574 3.19247 14.5213 3.71202 14.9759L12.75 22.8842V2.02777C12.75 1.33742 13.3096 0.777771 14 0.777771ZM0.25 33.9722C0.25 33.2819 0.809644 32.7222 1.5 32.7222H26.5C27.1904 32.7222 27.75 33.2819 27.75 33.9722C27.75 34.6626 27.1904 35.2222 26.5 35.2222H1.5C0.809644 35.2222 0.25 34.6626 0.25 33.9722Z" fill="white"/>
</svg>
