<svg width="34" height="23" viewBox="0 0 34 23" fill="none" xmlns="http://www.w3.org/2000/svg">
<path fill-rule="evenodd" clip-rule="evenodd" d="M2.36983 0.00435535C12.1236 -0.00725863 21.8774 0.00435535 31.6312 0.0391903C31.9129 0.0470491 32.1683 0.128333 32.3976 0.283035C27.5544 4.78957 22.7007 9.28328 17.8366 13.7642C17.4371 14.0873 16.9958 14.157 16.5128 13.9732C11.5221 9.4238 6.55233 4.84885 1.60346 0.2482C1.85855 0.137251 2.114 0.0559668 2.36983 0.00435535Z" fill="white"/>
<path fill-rule="evenodd" clip-rule="evenodd" d="M0.0707228 2.23379C3.51453 5.34058 6.92833 8.4873 10.3122 11.6741C6.97864 14.9264 3.63448 18.1661 0.279733 21.393C0.135314 21.1338 0.0540299 20.8551 0.0358879 20.557C-0.0216247 14.4473 -0.0100107 8.3396 0.0707228 2.23379Z" fill="white"/>
<path fill-rule="evenodd" clip-rule="evenodd" d="M33.8606 2.23379C33.9109 2.26291 33.9458 2.30931 33.9651 2.37313C34.0116 8.43442 34.0116 14.4957 33.9651 20.557C33.947 20.8551 33.8657 21.1338 33.7213 21.393C30.3985 18.1399 27.0776 14.8886 23.7585 11.6392C27.1414 8.51976 30.5088 5.38462 33.8606 2.23379Z" fill="white"/>
<path fill-rule="evenodd" clip-rule="evenodd" d="M12.054 13.381C12.1272 13.3706 12.1969 13.3822 12.263 13.4158C13.1735 14.3266 14.1257 15.1859 15.1194 15.9936C16.7169 16.8119 18.2032 16.6493 19.5783 15.5059C20.3215 14.8092 21.0646 14.1125 21.8077 13.4158C21.8774 13.3693 21.9471 13.3693 22.0168 13.4158C25.268 16.5742 28.5193 19.7326 31.7705 22.8909C26.857 22.9721 21.9336 23.0069 17.0005 22.9954C12.1004 22.9722 7.20026 22.949 2.30016 22.9258C5.55287 19.7427 8.80413 16.5611 12.054 13.381Z" fill="white"/>
</svg>
