<svg width="17" height="26" viewBox="0 0 17 26" fill="none" xmlns="http://www.w3.org/2000/svg">
<path d="M8.45 13C8.45 10.6061 10.3424 8.66728 12.675 8.66728C15.0094 8.66728 16.9 10.6043 16.9 13C16.9 15.3939 15.0094 17.3327 12.675 17.3327C10.3443 17.3327 8.45 15.3957 8.45 13Z" fill="#1ABCFE"/>
<path d="M0 21.6673C0 19.2734 1.89243 17.3327 4.225 17.3327H8.45V21.6673C8.45 24.0593 6.55757 26 4.225 26C1.89243 26 0 24.0593 0 21.6673Z" fill="#0ACF83"/>
<path d="M8.45 0V8.66729L12.675 8.66728C15.0094 8.66728 16.9 6.72657 16.9 4.33271C16.9 1.94071 15.0094 0 12.675 0H8.45Z" fill="#FF7262"/>
<path d="M0 4.33271C0 6.72657 1.89243 8.66729 4.225 8.66729H8.45V0H4.225C1.89243 0 0 1.94071 0 4.33271Z" fill="#F24E1E"/>
<path d="M0 13C0 15.3939 1.89243 17.3327 4.225 17.3327H8.45L8.45 8.66729H4.225C1.89243 8.66729 0 10.6043 0 13Z" fill="#A259FF"/>
</svg>
