<svg width="26" height="26" viewBox="0 0 26 26" fill="none" xmlns="http://www.w3.org/2000/svg">
<path d="M0.543549 14.3123C-0.181183 13.5875 -0.181183 12.4125 0.543549 11.6878L11.6878 0.543549C12.4125 -0.181183 13.5875 -0.181183 14.3123 0.543549L25.4564 11.6878C26.1812 12.4125 26.1812 13.5875 25.4564 14.3123L14.3123 25.4564C13.5875 26.1812 12.4125 26.1812 11.6878 25.4564L0.543549 14.3123Z" fill="#EE513B"/>
<path d="M9.42399 2.84284L8.29549 3.97137L11.2102 6.88608C11.0923 7.13904 11.0264 7.42116 11.0264 7.71866C11.0264 8.56329 11.5571 9.28396 12.3032 9.56541V16.6955C11.5571 16.977 11.0264 17.6977 11.0264 18.5423C11.0264 19.6321 11.9099 20.5155 12.9996 20.5155C14.0894 20.5155 14.9729 19.6321 14.9729 18.5423C14.9729 17.7766 14.5367 17.1127 13.8992 16.7856V9.57516L16.6854 12.3613C16.5732 12.6092 16.5108 12.8843 16.5108 13.174C16.5108 14.2638 17.3943 15.1472 18.4841 15.1472C19.5738 15.1472 20.4573 14.2638 20.4573 13.174C20.4573 12.0843 19.5738 11.2008 18.4841 11.2008C18.2723 11.2008 18.0683 11.2341 17.8771 11.2959L14.8847 8.30357C14.942 8.11879 14.9729 7.9223 14.9729 7.71866C14.9729 6.62887 14.0894 5.74543 12.9996 5.74543C12.796 5.74543 12.5996 5.77629 12.4147 5.83357L9.42399 2.84284Z" fill="white"/>
</svg>
