<svg width="32" height="32" viewBox="0 0 32 32" fill="none" xmlns="http://www.w3.org/2000/svg">
<path d="M22.605 0.0781856C22.3673 0.153267 22.1671 0.303431 21.6855 0.772693C21.0224 1.41089 20.9161 1.61736 21.0599 1.96775C21.1538 2.19925 29.8737 10.9025 30.0613 10.9588C30.3991 11.0589 30.5993 10.9463 31.2186 10.3081C31.7378 9.77001 31.8316 9.64487 31.9254 9.32577C32.0568 8.86902 32.013 8.41853 31.8066 8.01184C31.5876 7.58637 24.3565 0.365999 23.9436 0.165781C23.5871 -0.0156668 23.0116 -0.0532077 22.605 0.0781856Z" fill="white"/>
<path d="M18.2763 1.45469C18.17 1.50474 17.7571 1.88015 17.3568 2.28684C16.4623 3.18783 16.2871 3.51318 16.3247 4.15763C16.3372 4.42042 16.3997 4.68321 16.4873 4.8584C16.5874 5.06487 18.0073 6.52271 21.7981 10.3081C27.5154 16.0143 27.1339 15.6827 27.947 15.6827C28.5288 15.6827 28.9166 15.4449 29.8049 14.5377C30.6118 13.7181 30.7369 13.4928 30.5743 13.1737C30.4742 12.9672 19.077 1.5548 18.8643 1.44217C18.6516 1.32955 18.5203 1.33581 18.2763 1.45469Z" fill="white"/>
<path d="M27.6843 1.79882C27.4279 1.94272 27.553 2.11791 28.7165 3.28168C29.342 3.90736 29.905 4.42042 29.9613 4.42042C30.0176 4.42042 30.1114 4.37663 30.1614 4.32032C30.3116 4.17015 30.2928 3.46939 30.1364 3.13778C29.98 2.81242 29.098 1.94898 28.7978 1.82384C28.5476 1.71748 27.847 1.69871 27.6843 1.79882Z" fill="white"/>
<path d="M14.6107 14.6065C9.92546 19.2866 9.86916 19.3492 9.86916 19.5932C9.86916 19.831 9.91295 19.8873 11.0139 20.9822C12.1086 22.0834 12.1649 22.1272 12.4026 22.1272C12.6465 22.1272 12.7091 22.0709 17.3881 17.3846C22.0733 12.7045 22.1296 12.6419 22.1296 12.3979C22.1296 12.1601 22.0858 12.1038 20.9849 11.0089C19.8902 9.90766 19.8339 9.86386 19.5962 9.86386C19.3522 9.86386 19.2897 9.92017 14.6107 14.6065Z" fill="white"/>
<path d="M3.31983 16.4961C3.0446 16.6337 2.7506 16.884 2.19387 17.4534C1.36192 18.2981 1.25558 18.4983 1.44324 18.8487C1.61213 19.1615 13.0656 30.5614 13.2658 30.6115C13.5848 30.6866 13.7662 30.5739 14.5481 29.8044C15.5115 28.8533 15.7116 28.4967 15.6741 27.8397C15.6616 27.5707 15.599 27.3079 15.5115 27.1327C15.4114 26.9262 13.9914 25.4684 10.2007 21.683C5.47167 16.9591 4.99626 16.5023 4.71477 16.4085C4.2206 16.2458 3.75771 16.2771 3.31983 16.4961Z" fill="white"/>
<path d="M0.861491 21.6017C0.254724 22.2211 0.173405 22.3275 0.079575 22.6591C-0.0517869 23.1033 -0.0205103 23.56 0.173405 23.948C0.373575 24.3547 7.59848 31.5875 8.01758 31.8065C8.42418 32.013 8.87456 32.0568 9.3312 31.9254C9.65022 31.8316 9.77533 31.7377 10.3133 31.2184C10.9701 30.5802 11.0827 30.3737 10.9388 30.0233C10.9013 29.9295 8.87456 27.8585 6.44124 25.4246C2.45034 21.4327 1.9937 20.9947 1.77477 20.9572C1.54332 20.9197 1.53081 20.9259 0.861491 21.6017Z" fill="white"/>
<path d="M1.79979 27.6895C1.70596 27.871 1.72473 28.5405 1.83107 28.797C1.95617 29.0973 2.81941 29.9795 3.14468 30.136C3.43243 30.2736 4.09549 30.3112 4.30817 30.1985C4.5709 30.0546 4.45205 29.8794 3.2823 28.7094C2.11881 27.5456 1.94366 27.4268 1.79979 27.6895Z" fill="white"/>
</svg>
