<svg width="23" height="26" viewBox="0 0 23 26" fill="none" xmlns="http://www.w3.org/2000/svg">
<path d="M23 0L20.9046 23.3973L11.4859 26L2.09314 23.4009L0 0H23Z" fill="#E44D26"/>
<path d="M11.5 24.0106L19.1108 21.9074L20.9014 1.91337H11.5V24.0106Z" fill="#F16529"/>
<path d="M7.42671 7.6535H11.5V4.78344H4.27993L5.05655 13.4624H11.5V10.5925H7.68985L7.42671 7.6535Z" fill="#EBEBEB"/>
<path d="M8.07562 14.8975H5.1852L5.5886 19.4039L11.4867 21.0359L11.5 21.0323V18.0462L11.4874 18.0496L8.28062 17.1865L8.07562 14.8975Z" fill="#EBEBEB"/>
<path d="M11.49 13.4624H15.0357L14.7014 17.1847L11.49 18.0486V21.0345L17.3929 19.4039L18.1128 11.3631L18.1831 10.5925H11.49V13.4624Z" fill="white"/>
<path d="M11.49 7.6535H18.4451L18.7029 4.78344H11.49V7.6535Z" fill="white"/>
</svg>
