<svg width="26" height="26" viewBox="0 0 26 26" fill="none" xmlns="http://www.w3.org/2000/svg">
<path d="M0 0H26V26H0V0Z" fill="#F7DF1E"/>
<path d="M6.83635 21.7275L8.82605 20.5234C9.2099 21.2039 9.55909 21.7798 10.3967 21.7798C11.1995 21.7798 11.7057 21.4657 11.7057 20.2441V11.9365H14.149V20.2787C14.149 22.8093 12.6656 23.9612 10.5014 23.9612C8.54682 23.9612 7.41223 22.9489 6.83631 21.7273" fill="black"/>
<path d="M15.4762 21.4657L17.4656 20.3138C17.9894 21.1691 18.67 21.7973 19.8742 21.7973C20.8866 21.7973 21.5322 21.2912 21.5322 20.593C21.5322 19.7553 20.869 19.4586 19.752 18.9701L19.1413 18.7081C17.3785 17.9577 16.2091 17.0153 16.2091 15.0256C16.2091 13.1931 17.6053 11.7968 19.787 11.7968C21.3403 11.7968 22.4573 12.3379 23.26 13.7516L21.3576 14.9732C20.9387 14.2228 20.4851 13.9262 19.787 13.9262C19.0715 13.9262 18.6176 14.3799 18.6176 14.9732C18.6176 15.7063 19.0715 16.003 20.1185 16.4568L20.7293 16.7186C22.8062 17.6088 23.9756 18.5162 23.9756 20.5581C23.9756 22.7573 22.2478 23.9614 19.9266 23.9614C17.6578 23.9614 16.1916 22.8794 15.4762 21.4657Z" fill="black"/>
</svg>
