<svg width="20" height="26" viewBox="0 0 20 26" fill="none" xmlns="http://www.w3.org/2000/svg">
<path d="M9.75 0C4.36556 0 0 4.36556 0 9.75C0 11.8702 0.695094 13.8158 1.85047 15.4091C1.87119 15.4473 1.87444 15.4899 1.898 15.5265L8.398 25.2765C8.69944 25.7286 9.20725 26 9.75 26C10.2927 26 10.8006 25.7286 11.102 25.2765L17.602 15.5265C17.626 15.4899 17.6288 15.4473 17.6495 15.4091C18.8049 13.8158 19.5 11.8702 19.5 9.75C19.5 4.36556 15.1344 0 9.75 0ZM9.75 13C7.95519 13 6.5 11.5448 6.5 9.75C6.5 7.95519 7.95519 6.5 9.75 6.5C11.5448 6.5 13 7.95519 13 9.75C13 11.5448 11.5448 13 9.75 13Z" fill="white"/>
</svg>
