<svg width="20" height="20" viewBox="0 0 20 20" fill="none" xmlns="http://www.w3.org/2000/svg">
<path fill-rule="evenodd" clip-rule="evenodd" d="M6.2666 0.111713C7.28442 -0.344387 8.16621 0.685918 7.84779 1.58049C6.76737 4.61589 7.43119 8.06344 9.67381 10.3052C11.9278 12.5584 15.3982 13.2206 18.4434 12.1208C19.3295 11.8008 20.3319 12.6739 19.8938 13.6675C19.8808 13.6969 19.8677 13.7261 19.8546 13.7555C19.0749 15.4844 17.8277 17.1104 16.2141 18.2006C14.4942 19.3625 12.4659 19.9833 10.3901 19.9833H10.3891C7.97529 19.9807 5.63747 19.1387 3.77645 17.6019C1.91542 16.065 0.647098 13.9288 0.188997 11.5594C-0.269105 9.19008 0.11157 6.73527 1.26573 4.61578C2.35988 2.6065 4.19975 1.04507 6.23667 0.125169L6.2666 0.111713Z" fill="white"/>
</svg>
