<svg width="26" height="26" viewBox="0 0 26 26" fill="none" xmlns="http://www.w3.org/2000/svg">
<path d="M4.9676 0.0558157C3.06987 0.334894 1.46643 1.4918 0.619048 3.19165C0.162373 4.09992 0.0608899 4.61241 0.0253708 6.07377L0 7.25605H6.09914L7.90047 3.65339C8.88993 1.67447 9.7018 0.0405933 9.7018 0.0253708C9.7018 -0.0202966 5.27713 0.0101483 4.9676 0.0558157Z" fill="white"/>
<path d="M9.94028 3.62802L8.12881 7.25605H15.1565L16.9731 3.62802L18.7845 0H11.7568L9.94028 3.62802Z" fill="white"/>
<path d="M19.0027 3.62295C18.0183 5.59172 17.2116 7.21545 17.2116 7.23067C17.2116 7.2459 19.1905 7.25605 21.6058 7.25605H26L25.9746 6.07377C25.9543 5.27205 25.9239 4.79 25.8681 4.55659C25.4926 2.94301 24.5742 1.65418 23.194 0.822013C22.5648 0.436378 21.7073 0.137002 21.0679 0.0710382L20.7888 0.0405933L19.0027 3.62295Z" fill="white"/>
<path d="M0.0253708 15.0804C0.0456674 21.5905 0.0253708 21.2151 0.319672 22.0827C0.659641 23.1128 1.40554 24.1479 2.28845 24.8177C2.72482 25.1475 3.73458 25.6448 4.23692 25.7716C5.04879 25.9797 5.18579 25.9848 13.2791 25.9645C20.3778 25.9492 21.1237 25.9391 21.4333 25.863C22.6409 25.5636 23.4781 25.1019 24.2951 24.2849C25.112 23.468 25.5738 22.6257 25.8731 21.4231C25.9493 21.1186 25.9594 20.4742 25.9746 15.0804L25.9949 9.08274H0.00507416L0.0253708 15.0804ZM10.742 12.5738C11.1885 12.7311 17.0695 15.9278 17.2775 16.1307C17.6023 16.4352 17.7393 16.7549 17.7443 17.2014C17.7443 17.516 17.719 17.6327 17.6073 17.861C17.5312 18.0133 17.3942 18.2162 17.3029 18.3025C17.1557 18.4446 11.9344 21.3013 10.9957 21.7478C10.6963 21.895 10.5898 21.9204 10.2853 21.9204C9.67643 21.9204 9.2096 21.6362 8.94575 21.0983L8.78845 20.7888V17.2521C8.78845 14.2178 8.7986 13.6799 8.86456 13.4922C9.01678 13.066 9.36183 12.7361 9.8185 12.5788C10.1534 12.4621 10.4173 12.4621 10.742 12.5738Z" fill="white"/>
</svg>
