<svg width="31" height="28" viewBox="0 0 31 28" fill="none" xmlns="http://www.w3.org/2000/svg">
<path d="M14.1381 0.0609017C11.6563 0.296971 8.99297 1.38652 6.94098 3.00874C5.85144 3.86222 4.49555 5.4118 3.78735 6.5982C2.49199 8.7773 1.9109 10.8172 1.83826 13.4381L1.80194 14.6911L1.49324 14.8304C0.869774 15.1209 0.288681 15.8594 0.0889304 16.6099C-0.0200245 17.0094 -0.0321306 24.5697 0.0707712 25.0661C0.294734 26.1072 1.13006 26.9425 2.17118 27.1665C2.37698 27.2088 3.23652 27.2331 4.51976 27.2331C6.43253 27.2331 6.55964 27.227 6.78361 27.112C6.94098 27.0333 7.0681 26.9062 7.14679 26.7488C7.26785 26.5188 7.26785 26.4038 7.26785 20.8774C7.26785 15.3509 7.26785 15.2359 7.14679 15.0059C7.0681 14.8485 6.94098 14.7214 6.78361 14.6427C6.5657 14.5338 6.43253 14.5216 5.0827 14.5216H3.61786L3.65418 13.4139C3.71471 11.4588 4.06579 10.0242 4.88295 8.38385C5.46404 7.22772 6.14198 6.28344 7.04389 5.37548C11.7653 0.617783 19.2953 0.635942 23.9985 5.4118C24.8701 6.29555 25.542 7.23982 26.111 8.38385C26.9342 10.0242 27.2853 11.4527 27.3458 13.4139L27.3821 14.5216H25.9173C24.5675 14.5216 24.4343 14.5338 24.2164 14.6427C24.059 14.7214 23.9319 14.8485 23.8532 15.0059C23.7321 15.2359 23.7322 15.3509 23.7322 20.8774C23.7322 26.4038 23.7321 26.5188 23.8532 26.7488C23.9319 26.9062 24.059 27.0333 24.2164 27.112C24.4404 27.227 24.5675 27.2331 26.4802 27.2331C27.7332 27.2331 28.6291 27.2088 28.8288 27.1665C29.2949 27.0696 29.9184 26.7185 30.2331 26.3856C30.5539 26.0467 30.8324 25.514 30.9292 25.0661C31.0321 24.5697 31.02 17.0094 30.9111 16.6099C30.7113 15.8594 30.1302 15.1209 29.5068 14.8304L29.1981 14.6911L29.1617 13.4684C29.1254 12.1125 29.0225 11.3317 28.7441 10.2542C27.8724 6.87664 25.6994 3.92275 22.7031 2.05236C20.2153 0.496722 17.1283 -0.223592 14.1381 0.0609017Z" fill="white"/>
<path d="M15.0642 12.8328C14.925 12.9055 14.7857 13.0447 14.7131 13.19C14.5981 13.42 14.592 13.5411 14.592 16.7794V20.1328L14.2773 20.0541C13.7022 19.9028 13.0909 19.9754 12.4735 20.2599C12.0316 20.4657 11.4566 21.0529 11.2447 21.5008C10.7423 22.5783 10.9481 23.7768 11.7774 24.6C12.8185 25.6472 14.4407 25.6774 15.5363 24.6787C15.8934 24.3518 16.2385 23.7344 16.3414 23.2501C16.3837 23.0383 16.408 21.749 16.408 19.3762V15.8231L17.5338 16.9429C18.8171 18.2201 18.9502 18.4138 18.9502 19.0614C18.9502 19.5033 18.7989 19.8725 18.4357 20.3205C18.2723 20.5263 18.2239 20.6413 18.2239 20.8289C18.2239 21.5129 18.9321 21.973 19.5313 21.6885C19.9369 21.4948 20.4817 20.6473 20.6693 19.927C20.7904 19.4549 20.7904 18.668 20.6693 18.1898C20.4453 17.3242 20.3001 17.1366 18.1331 14.9575C17.0375 13.8437 16.0327 12.8873 15.9116 12.8207C15.6271 12.6755 15.3487 12.6755 15.0642 12.8328Z" fill="white"/>
</svg>
