<svg width="28" height="26" viewBox="0 0 28 26" fill="none" xmlns="http://www.w3.org/2000/svg">
<path d="M19.2037 16.6801L18.507 17.3726C18.507 17.3726 16.8513 19.019 12.3318 14.5252C7.81244 10.0314 9.46815 8.38513 9.46815 8.38513L9.90679 7.94895C10.9875 6.87448 11.0893 5.1494 10.1464 3.89003L8.21795 1.31389C7.05103 -0.244834 4.79618 -0.450739 3.45869 0.879149L1.05812 3.26609C0.394938 3.92552 -0.0494794 4.78032 0.00441726 5.72859C0.142294 8.15457 1.23991 13.3743 7.36469 19.4643C13.8597 25.9224 19.954 26.179 22.4462 25.9467C23.2344 25.8733 23.9199 25.4718 24.4723 24.9224L26.645 22.7623C28.1116 21.304 27.698 18.804 25.8216 17.784L22.8996 16.1956C21.6675 15.5259 20.1666 15.7225 19.2037 16.6801Z" fill="white"/>
</svg>
