<svg width="26" height="26" viewBox="0 0 26 26" fill="none" xmlns="http://www.w3.org/2000/svg">
<path d="M0 9.40949C0 6.11588 0 4.46906 0.640984 3.21106C1.20481 2.10449 2.10449 1.20481 3.21106 0.640984C4.46906 0 6.11588 0 9.40949 0H16.5905C19.8841 0 21.531 0 22.7889 0.640984C23.8955 1.20481 24.7952 2.10449 25.359 3.21106C26 4.46906 26 6.11588 26 9.40949V16.5905C26 19.8841 26 21.531 25.359 22.7889C24.7952 23.8955 23.8955 24.7952 22.7889 25.359C21.531 26 19.8841 26 16.5905 26H9.40949C6.11588 26 4.46906 26 3.21106 25.359C2.10449 24.7952 1.20481 23.8955 0.640984 22.7889C0 21.531 0 19.8841 0 16.5905V9.40949Z" fill="#001E36"/>
<path d="M5.57143 19.0508V7.61744C5.57143 7.53972 5.60393 7.49524 5.67977 7.49524C6.79928 7.49524 7.9183 7.42857 9.03806 7.42857C10.8552 7.42857 12.8226 8.04988 13.5123 9.95076C13.6748 10.4175 13.7614 10.8952 13.7614 11.3952C13.7614 12.3508 13.5448 13.1397 13.1114 13.7619C11.9009 15.5 9.80293 15.473 7.92229 15.473V19.0397C7.93696 19.1453 7.84699 19.1952 7.75979 19.1952H5.70143C5.61477 19.1952 5.57143 19.1508 5.57143 19.0508ZM7.93306 9.63969V13.373C8.6788 13.4276 9.45908 13.4336 10.1756 13.1953C10.9666 12.967 11.3998 12.2824 11.3998 11.4619C11.4217 10.7628 11.0408 10.092 10.3923 9.8397C9.68444 9.54534 8.69719 9.5277 7.93306 9.63969Z" fill="#31A8FF"/>
<path d="M20.5184 12.6354C20.1906 12.4626 19.8414 12.3363 19.4805 12.2597C19.0168 12.1506 17.1877 11.7684 17.1869 12.7249C17.2032 13.2588 18.0508 13.5204 18.4253 13.6729C19.74 14.1243 21.2278 14.9312 21.1985 16.5531C21.2388 18.5722 19.2824 19.3794 17.6055 19.3796C16.7326 19.3886 15.8231 19.2534 15.0242 18.8786C14.9479 18.8382 14.8988 18.7519 14.9021 18.6639V16.7319C14.8935 16.6545 14.9767 16.5868 15.0417 16.6425C15.8244 17.1159 16.7523 17.3458 17.6579 17.3581C18.0576 17.3581 18.8499 17.3193 18.844 16.7319C18.844 16.1683 17.8962 15.9091 17.5183 15.7659C16.9707 15.5705 16.4514 15.2996 15.9748 14.961C15.3086 14.4858 14.8908 13.724 14.9021 12.8859C14.8982 10.9847 16.699 10.1314 18.3207 10.131C19.0788 10.1247 19.893 10.1809 20.5987 10.4888C20.7002 10.5186 20.7212 10.6255 20.7208 10.7213V12.5281C20.7272 12.6403 20.6027 12.6784 20.5184 12.6354Z" fill="#31A8FF"/>
</svg>
