<svg width="28" height="26" viewBox="0 0 28 26" fill="none" xmlns="http://www.w3.org/2000/svg">
<path d="M19.401 18.1582C20.4343 18.0536 21.2182 17.1823 21.1826 16.1366C21.147 15.0912 20.2561 14.2547 19.1872 14.2547H19.116C18.0113 14.2895 17.1563 15.1957 17.1919 16.2761C17.2276 16.7989 17.4413 17.2519 17.762 17.5656C16.5505 19.9008 14.6977 21.6085 11.9185 23.0375C10.03 24.0133 8.07035 24.3619 6.11067 24.118C4.50723 23.9089 3.26014 23.2119 2.47614 22.0616C1.33601 20.3538 1.22915 18.5066 2.19121 16.6595C2.86825 15.3351 3.93706 14.3592 4.61409 13.8712C4.47158 13.4181 4.25775 12.6514 4.15089 12.0938C-1.01566 15.7533 -0.481143 20.7024 1.08664 23.0375C2.26242 24.7801 4.64974 25.8606 7.28645 25.8606C7.99903 25.8606 8.71164 25.7908 9.42433 25.6167C13.9852 24.7453 17.4414 22.0965 19.401 18.1582ZM25.6722 13.8365C22.9642 10.7346 18.9735 9.02684 14.4126 9.02684H13.8426C13.5219 8.3995 12.8449 7.98118 12.0967 7.98118H12.0253C10.9208 8.01609 10.0658 8.92219 10.1014 10.0027C10.137 11.0482 11.0277 11.8847 12.0967 11.8847H12.1679C12.9518 11.8499 13.6288 11.3619 13.9139 10.6997H14.5551C17.2632 10.6997 19.8286 11.4664 22.1447 12.9651C23.9262 14.1152 25.209 15.6139 25.9216 17.4262C26.5273 18.89 26.4916 20.319 25.8503 21.5389C24.8526 23.386 23.178 24.3967 20.9688 24.3967C19.5435 24.3967 18.1896 23.9785 17.4769 23.6648C17.085 24.0133 16.3723 24.5709 15.8735 24.9196C17.4057 25.6166 18.9735 26 20.47 26C23.8905 26 26.4204 24.1527 27.3825 22.3056C28.4157 20.2841 28.3444 16.7989 25.6722 13.8365ZM7.57148 18.7506C7.60714 19.7961 8.49791 20.6325 9.56685 20.6325H9.63816C10.7427 20.5978 11.5978 19.6916 11.5621 18.6112C11.5266 17.5655 10.6357 16.7292 9.56685 16.7292H9.49564C9.42433 16.7292 9.31737 16.7291 9.24625 16.7639C7.78531 14.394 7.17959 11.815 7.39342 9.02675C7.53583 6.93557 8.24851 5.1232 9.49564 3.62451C10.5288 2.33496 12.5242 1.70762 13.8783 1.67286C17.6551 1.6031 19.2584 6.20361 19.3654 8.05082C19.8286 8.15538 20.6125 8.39941 21.147 8.5737C20.7194 2.92763 17.1563 0 13.7358 0C10.5288 0 7.57148 2.26543 6.39559 5.61125C4.75661 10.0723 5.82553 14.3592 7.82086 17.7399C7.6428 17.9838 7.53583 18.3671 7.57148 18.7506Z" fill="#764ABC"/>
</svg>
