<svg width="22" height="26" viewBox="0 0 22 26" fill="none" xmlns="http://www.w3.org/2000/svg">
<path d="M11.086 0.802993C4.10268 3.20774 -0.407356 8.09011 0.0290991 11.005C0.465555 13.9198 4.83011 16.2517 6.79416 17.782C4.24817 19.0937 1.0475 21.0612 1.12024 23.6117C1.26572 27.1095 5.04834 26.0164 6.64867 24.9962C8.24901 23.976 9.84935 21.1341 8.83095 18.1463C11.086 17.5634 13.05 18.2921 13.632 18.7293C15.887 20.3325 14.7231 22.1543 13.9229 22.4457C13.1228 22.7372 13.632 22.883 14.1412 22.7372C14.6504 22.5915 15.7415 21.8628 15.7415 20.624C15.7415 17.4905 12.3953 16.0331 8.24901 17.1261C5.84851 14.5757 2.57509 13.4097 2.72057 10.6406C2.79332 9.62041 3.15703 6.99705 9.63112 3.71784C16.1052 0.438637 20.688 1.75032 20.1061 4.73804C19.2331 9.25605 11.3769 12.3166 8.61272 9.69328C8.46724 9.4018 7.95804 9.18318 8.24901 9.98477C9.70386 13.6283 21.4882 11.9523 21.9974 4.22794C22.1428 0.147152 16.2507 -0.945916 11.086 0.802993ZM4.83011 24.1218C3.01154 24.7048 3.08429 23.5388 3.15703 23.1016C3.37526 21.8628 4.39365 20.3325 7.44884 18.8022C8.32175 21.5713 6.3577 23.6846 4.83011 24.1218Z" fill="#CC6699"/>
</svg>
