<svg width="20" height="20" viewBox="0 0 20 20" fill="none" xmlns="http://www.w3.org/2000/svg">
<path d="M10.0014 15.0016C12.7631 15.0016 15.0019 12.7628 15.0019 10.0011C15.0019 7.23937 12.7631 5.00055 10.0014 5.00055C7.23968 5.00055 5.00086 7.23937 5.00086 10.0011C5.00086 12.7628 7.23968 15.0016 10.0014 15.0016Z" fill="white"/>
<path fill-rule="evenodd" clip-rule="evenodd" d="M3.75049 9.9986C3.75049 9.30763 3.1914 8.74854 2.50043 8.74854H1.25006C0.559089 8.74854 0 9.30763 0 9.9986C0 10.6896 0.559089 11.2487 1.25006 11.2487H2.50012C3.1914 11.2487 3.75049 10.6896 3.75049 9.9986Z" fill="white"/>
<path fill-rule="evenodd" clip-rule="evenodd" d="M3.81393 14.4182L2.92889 15.3035C2.44043 15.7917 2.44043 16.583 2.92889 17.0711C3.41703 17.5593 4.20832 17.5593 4.69678 17.0711L5.58213 16.1861C6.07028 15.6979 6.07028 14.9063 5.58213 14.4182C5.09336 13.9297 4.30239 13.9297 3.81393 14.4182Z" fill="white"/>
<path fill-rule="evenodd" clip-rule="evenodd" d="M10.0014 16.2495C9.31043 16.2495 8.75134 16.8086 8.75134 17.4996V18.7499C8.75134 19.4409 9.31043 20 10.0014 20C10.6924 20 11.2515 19.4409 11.2515 18.7499L11.2502 17.4996C11.2515 16.8086 10.6911 16.2495 10.0014 16.2495Z" fill="white"/>
<path fill-rule="evenodd" clip-rule="evenodd" d="M16.1876 14.4194C15.7004 13.93 14.9091 13.93 14.421 14.4182C13.9328 14.9063 13.9328 15.6979 14.421 16.1861L15.3051 17.0699C15.7932 17.5605 16.5845 17.558 17.0727 17.0699C17.5608 16.5817 17.5621 15.7917 17.0727 15.3023L16.1876 14.4194Z" fill="white"/>
<path fill-rule="evenodd" clip-rule="evenodd" d="M18.7527 8.74854L17.4999 8.75104C16.8114 8.74854 16.2523 9.30763 16.2523 9.9986C16.2498 10.6896 16.8114 11.2487 17.4999 11.2487H18.7502C19.4437 11.2512 20.0003 10.6896 20.0003 9.9986C20.0016 9.30888 19.4437 8.74854 18.7527 8.74854Z" fill="white"/>
<path fill-rule="evenodd" clip-rule="evenodd" d="M16.1876 5.58027L17.0714 4.69616C17.5633 4.20677 17.5596 3.41673 17.0714 2.92827C16.5842 2.43856 15.7932 2.43856 15.3051 2.92702L14.421 3.81331C13.9328 4.29927 13.9328 5.09024 14.421 5.5787C14.9066 6.06998 15.7004 6.06748 16.1876 5.58027Z" fill="white"/>
<path fill-rule="evenodd" clip-rule="evenodd" d="M10.0014 3.74768C10.6911 3.75268 11.2515 3.18859 11.2515 2.50012V1.25007C11.2515 0.556597 10.6924 8.35238e-06 10.0014 8.35238e-06C9.31043 -0.00249176 8.75134 0.556597 8.75134 1.24788L8.75384 2.50044C8.75134 3.18859 9.31043 3.74768 10.0014 3.74768Z" fill="white"/>
<path fill-rule="evenodd" clip-rule="evenodd" d="M3.81643 5.57902C4.30239 6.06717 5.09117 6.06717 5.58088 5.57777C6.07278 5.09306 6.07028 4.29958 5.58338 3.81237L4.69928 2.92858C4.20863 2.43762 3.41985 2.44137 2.93139 2.92858C2.43918 3.41579 2.43918 4.20677 2.92764 4.69523L3.81643 5.57902Z" fill="white"/>
</svg>
