<svg width="26" height="26" viewBox="0 0 26 26" fill="none" xmlns="http://www.w3.org/2000/svg">
<path d="M0 13V0H26V26H0" fill="#007ACC"/>
<path d="M5.7005 13.0455V14.105H9.0805V23.725H11.479V14.105H14.859V13.065C14.859 12.48 14.859 12.0055 14.833 11.9925C14.833 11.973 12.7725 11.9665 10.27 11.9665L5.72 11.986V13.052L5.7005 13.0455ZM20.891 11.96C21.554 12.116 22.061 12.415 22.516 12.8895C22.7565 13.1495 23.114 13.6045 23.14 13.7215C23.14 13.7605 22.0155 14.521 21.333 14.9435C21.307 14.963 21.203 14.8525 21.099 14.6835C20.761 14.2025 20.4165 13.9945 19.877 13.9555C19.097 13.9035 18.577 14.313 18.577 14.9955C18.577 15.2035 18.616 15.3205 18.694 15.4895C18.8695 15.847 19.1945 16.0615 20.202 16.5035C22.061 17.303 22.867 17.8295 23.3545 18.5835C23.907 19.4285 24.0305 20.7545 23.66 21.749C23.244 22.8345 22.23 23.569 20.7805 23.8095C20.3255 23.8875 19.2855 23.8745 18.798 23.79C17.758 23.595 16.7635 23.075 16.1525 22.4055C15.912 22.1455 15.4505 21.45 15.4765 21.4045L15.7235 21.2485L16.6985 20.683L17.433 20.254L17.602 20.4815C17.8165 20.8195 18.2975 21.2745 18.577 21.4305C19.422 21.866 20.553 21.8075 21.112 21.3005C21.3525 21.0795 21.4565 20.8455 21.4565 20.5205C21.4565 20.2215 21.411 20.085 21.2615 19.8575C21.0535 19.5715 20.6375 19.3375 19.4675 18.8175C18.122 18.2455 17.55 17.8815 17.017 17.3225C16.7115 16.9845 16.432 16.458 16.302 16.0225C16.2045 15.6455 16.172 14.7225 16.263 14.352C16.5425 13.052 17.524 12.142 18.928 11.882C19.383 11.791 20.4555 11.83 20.904 11.947L20.891 11.96Z" fill="white"/>
</svg>
