<svg width="32" height="21" viewBox="0 0 32 21" fill="none" xmlns="http://www.w3.org/2000/svg">
<path d="M7.32091 0.603588C6.51935 0.740441 5.65261 1.09235 4.84453 1.61369C2.63534 3.04087 0.719404 7.3615 0.0872756 12.3338C-0.0430602 13.3569 -0.0235098 15.7291 0.11986 16.5046C0.387048 17.9317 0.875807 18.9679 1.66434 19.7695C2.20523 20.3104 2.63534 20.5841 3.32612 20.8187C3.71061 20.9425 3.91263 20.9686 4.59689 20.962C5.59396 20.962 5.998 20.8578 6.97552 20.382C7.87484 19.9389 8.30495 19.6131 9.491 18.4466C10.5402 17.4169 11.1789 16.9281 12.0977 16.4394C14.4438 15.2077 17.435 15.1947 19.8266 16.4003C20.7129 16.8434 21.4754 17.4299 22.5572 18.4791C23.652 19.5479 24.1994 19.978 24.9293 20.3495C26.5129 21.138 27.9661 21.2097 29.289 20.5645C29.9277 20.2517 30.7097 19.4892 31.1007 18.7854C31.433 18.1924 31.7263 17.3322 31.8827 16.5046C32.0391 15.6509 32.0391 13.2266 31.8827 12.0731C31.218 7.2051 29.3216 3.0148 27.158 1.61369C25.8612 0.779541 24.5578 0.427635 23.3978 0.603588C22.6223 0.72089 22.0228 0.935944 20.7585 1.57459C18.9338 2.49997 17.826 2.7802 16.0013 2.7802C14.2222 2.7802 12.971 2.47391 11.4069 1.65279C9.59527 0.707857 8.46135 0.414601 7.32091 0.603588ZM24.0821 5.81702C24.7794 6.17544 24.9097 7.13993 24.3428 7.70689C23.5868 8.46284 22.3226 7.94149 22.3226 6.86622C22.3226 6.67724 22.3617 6.44915 22.4138 6.3514C22.5116 6.16241 22.7983 5.87567 23.0068 5.76489C23.2219 5.64107 23.8019 5.67365 24.0821 5.81702ZM9.30202 7.19858L9.32157 8.39115L10.5141 8.4107L11.7002 8.42374V9.59676V10.7698H10.4946H9.28898V11.9428V13.1158H8.11596H6.94294V11.9428V10.7698H5.76992H4.59689V9.59676V8.42374H5.76992H6.94294V7.21813V6.01252H8.11596H9.28898L9.30202 7.19858ZM21.0974 8.42374C21.7817 8.61272 22.1662 9.39474 21.899 10.0334C21.6839 10.5482 21.2668 10.7958 20.6868 10.7567C19.3444 10.659 19.188 8.81474 20.4848 8.42374C20.7325 8.35205 20.8237 8.35205 21.0974 8.42374ZM26.565 8.43677C27.0994 8.61272 27.4057 9.0298 27.4057 9.56417C27.4057 10.5156 26.4281 11.0891 25.6135 10.6069C25.2877 10.4179 25.1574 10.2354 25.0596 9.83788C24.9162 9.27744 25.2551 8.65182 25.809 8.45632C26.1349 8.34553 26.2848 8.33902 26.565 8.43677ZM23.9843 11.2194C24.3884 11.4019 24.7338 11.8972 24.7338 12.3012C24.7338 12.6922 24.3428 13.2657 23.9713 13.4156C23.3327 13.6893 22.4725 13.2657 22.3486 12.6205C22.2313 12.0015 22.492 11.454 23.0003 11.2194C23.3392 11.0696 23.652 11.063 23.9843 11.2194Z" fill="white"/>
</svg>
