<svg width="26" height="26" viewBox="0 0 26 26" fill="none" xmlns="http://www.w3.org/2000/svg">
<path d="M25.914 3.84831L13.7004 25.6607C13.4482 26.1109 12.8005 26.1136 12.5444 25.6655L0.088805 3.85035C-0.190004 3.36194 0.228024 2.7704 0.78211 2.86925L13.0088 5.052C13.0868 5.06592 13.1667 5.0658 13.2446 5.05163L25.2155 2.8724C25.7678 2.77188 26.1879 3.35897 25.914 3.84831Z" fill="url(#paint0_linear_194_801)"/>
<path d="M18.8329 0.00640847L9.79461 1.77518C9.72238 1.7893 9.6569 1.827 9.60846 1.88234C9.56003 1.93769 9.53139 2.00755 9.52705 2.08093L8.9711 11.4593C8.95809 11.6802 9.16116 11.8516 9.37696 11.8019L11.8934 11.2219C12.1289 11.1676 12.3416 11.3748 12.2932 11.6112L11.5456 15.2676C11.4953 15.5136 11.7266 15.7241 11.9672 15.6512L13.5215 15.1795C13.7624 15.1064 13.9939 15.3175 13.943 15.5637L12.7549 21.3072C12.6806 21.6664 13.159 21.8622 13.3585 21.5542L13.4918 21.3485L20.8567 6.66892C20.9801 6.42313 20.7675 6.14291 20.4971 6.19498L17.9069 6.69426C17.6634 6.74113 17.4564 6.51474 17.5251 6.27685L19.2157 0.423633C19.2844 0.185272 19.0766 -0.0413009 18.8329 0.00640847Z" fill="url(#paint1_linear_194_801)"/>
<defs>
<linearGradient id="paint0_linear_194_801" x1="-0.215343" y1="-0.863658" x2="17.3252" y2="20.3656" gradientUnits="userSpaceOnUse">
<stop stop-color="#41D1FF"/>
<stop offset="1" stop-color="#BD34FE"/>
</linearGradient>
<linearGradient id="paint1_linear_194_801" x1="12.3064" y1="0.486561" x2="15.0492" y2="19.3258" gradientUnits="userSpaceOnUse">
<stop stop-color="#FFEA83"/>
<stop offset="0.0833" stop-color="#FFDD35"/>
<stop offset="1" stop-color="#FFA800"/>
</linearGradient>
</defs>
</svg>
