<svg width="31" height="31" viewBox="0 0 31 31" fill="none" xmlns="http://www.w3.org/2000/svg">
<path d="M12.8776 0.116429C9.63244 0.679482 6.62949 2.27783 4.31674 4.68745C1.80419 7.30292 0.332988 10.6146 0.0423803 14.3381L0 14.8587L0.665977 15.1736C1.42882 15.5368 2.39146 15.888 3.22696 16.118C3.83845 16.2875 5.0251 16.5176 5.26727 16.5176H5.41257L5.37019 15.7124C5.32176 14.78 5.41257 13.3694 5.58815 12.2796C6.18147 8.6712 7.85852 5.40186 10.4558 2.80455C11.479 1.77532 12.4598 1.01852 13.9734 0.0679941C14.0703 0.0074508 14.0521 -0.00465786 13.816 0.00139647C13.6646 0.00139647 13.2469 0.0558855 12.8776 0.116429Z" fill="white"/>
<path d="M17.388 0.473635C15.8079 1.05485 14.2458 1.93878 12.9381 2.99829C12.2661 3.53713 11.1158 4.6935 10.5951 5.34737C9.11782 7.20605 8.06437 9.40377 7.55581 11.6741C7.25309 13.0424 7.10779 14.774 7.1986 15.9727L7.24704 16.6084L7.73138 16.6266C8.30654 16.6448 9.5719 16.5116 10.4377 16.3299C11.6364 16.0817 13.1137 15.5731 14.1853 15.0343L14.5909 14.8285L14.6333 14.4168C14.7907 12.6792 14.9603 11.7044 15.3235 10.4512C16.2983 7.14551 18.4294 3.95488 21.0751 1.87219C21.9046 1.21832 21.8501 1.27281 21.7472 1.20015C21.3839 0.964036 18.7805 0.164864 18.3688 0.170918C18.278 0.176973 17.8361 0.310168 17.388 0.473635Z" fill="white"/>
<path d="M23.1699 2.56843C21.947 3.42209 20.6634 4.6148 19.834 5.67431L19.5737 6.00729L20.2215 6.34634C24.6351 8.6712 27.7894 12.6731 29.0124 17.4924C29.309 18.6669 29.4846 19.9444 29.5754 21.6638C29.5875 21.9302 29.5936 21.9181 29.9023 21.1431C31.1253 18.0917 31.3312 14.6347 30.4957 11.4501C30.2111 10.3664 29.9447 9.65806 29.4059 8.55617C28.4311 6.55824 26.9236 4.67534 25.1739 3.28284C24.629 2.85299 23.7511 2.22939 23.6906 2.22939C23.6724 2.23545 23.4363 2.3868 23.1699 2.56843Z" fill="white"/>
<path d="M18.4597 7.69645C18.278 7.97495 17.7876 8.99813 17.5273 9.64595C17.0369 10.8629 16.6191 12.5581 16.5162 13.7629C16.492 13.993 16.4617 14.3381 16.4436 14.5257L16.4072 14.8708L17.0369 15.2946C21.1296 18.0917 23.8177 22.4569 24.4777 27.3851C24.52 27.6818 24.5564 27.9421 24.5685 27.9542C24.6169 28.0148 25.743 27.0582 26.4453 26.362C27.3353 25.478 27.2929 25.5567 27.4988 24.3761C28.0437 21.1794 27.6017 17.9888 26.2031 15.0343C24.9438 12.3765 22.8127 10.0092 20.3123 8.48957C19.7492 8.14447 18.6534 7.5572 18.5747 7.5572C18.5626 7.5572 18.5141 7.61775 18.4597 7.69645Z" fill="white"/>
<path d="M14.8452 16.7235C13.2408 17.5408 11.1945 18.1281 9.14204 18.3702C8.05831 18.4913 5.6608 18.4611 4.67394 18.3036C3.29356 18.0857 1.97371 17.7164 0.750737 17.2078C0.399586 17.0625 0.102924 16.9414 0.090815 16.9414C0.00605433 16.9414 0.423803 19.127 0.653868 19.8535C0.829443 20.4287 0.889987 20.5074 1.70732 21.1916C2.97268 22.2571 4.81925 23.3227 6.39943 23.8918C7.23493 24.1945 8.54266 24.5214 9.48714 24.6667C10.4982 24.8242 12.8836 24.8242 13.8765 24.6728C15.7413 24.3822 17.6968 23.7344 19.1741 22.8989C19.9914 22.4387 20.7179 21.9665 20.7179 21.8999C20.7179 21.803 20.1246 20.8828 19.6947 20.3076C18.6473 18.9151 17.3699 17.7103 15.8926 16.7114C15.6868 16.5721 15.4809 16.4571 15.4385 16.4631C15.3962 16.4631 15.1298 16.5782 14.8452 16.7235Z" fill="white"/>
<path d="M20.8693 24.0008C18.9258 25.254 16.3891 26.1561 13.816 26.5133C13.041 26.6223 10.3408 26.6223 9.57795 26.5194C7.38023 26.2106 5.5942 25.6536 3.71131 24.6849C3.19669 24.4246 2.76683 24.2066 2.75472 24.2066C2.67601 24.2066 3.78396 25.5567 4.34096 26.1319C5.19462 27.0219 5.95141 27.6576 6.97459 28.3357C11.4548 31.3144 17.2367 31.72 22.1649 29.4073L22.7946 29.1106L22.7582 28.487C22.6856 27.2156 22.3284 25.5567 21.8319 24.2187C21.7048 23.8797 21.5716 23.6012 21.5413 23.6072C21.505 23.6133 21.2023 23.7889 20.8693 24.0008Z" fill="white"/>
</svg>
