<svg width="23" height="26" viewBox="0 0 23 26" fill="none" xmlns="http://www.w3.org/2000/svg">
<path d="M11.4891 0L22.9782 6.49892V19.5011L11.4891 26L0 19.5011V6.49892L11.4891 0Z" fill="white"/>
<path d="M20.9275 19.0502L11.8706 24.1791V20.1904L17.5154 17.0819L20.9275 19.0502ZM21.5474 18.4909V7.77355L18.2351 9.68551V16.579L21.5474 18.4909ZM2.01601 19.0502L11.0729 24.1748V20.1861L5.42805 17.0819L2.01601 19.0502ZM1.39603 18.4909V7.77355L4.70835 9.68551V16.579L1.39603 18.4909ZM1.78189 7.07987L11.0729 1.82525V5.68384L5.12023 8.95715L5.07254 8.98316L1.78189 7.07987ZM21.1572 7.07987L11.8706 1.82525V5.68384L17.8189 8.96148L17.8666 8.98749L21.1572 7.07987Z" fill="#8ED6FB"/>
<path d="M11.0729 19.28L5.50609 16.2148V10.1494L11.0729 13.362V19.28ZM11.8706 19.28L17.4374 16.2191V10.1494L11.8706 13.362V19.28ZM5.87894 9.44706L11.4717 6.37319L17.0602 9.44706L11.4717 12.6727L5.87894 9.44706Z" fill="#1C78C0"/>
</svg>
