<svg width="19" height="20" viewBox="0 0 19 20" fill="none" xmlns="http://www.w3.org/2000/svg">
<path d="M18.1926 5.54059V8.21259C18.1926 8.21259 16.9268 8.16299 15.9892 7.92459C14.6807 7.59117 13.8393 7.07977 13.8393 7.07977C13.8393 7.07977 13.2587 6.71509 13.2118 6.68925V13.7337C13.2118 14.1259 13.1044 15.1058 12.7769 15.9222C12.3495 16.9913 11.6898 17.6927 11.5685 17.8361C11.5685 17.8361 10.7657 18.7843 9.35068 19.4228C8.07525 19.9988 6.95506 19.9842 6.61978 19.9988C6.61978 19.9988 4.6838 20.0755 2.94089 18.9431L2.9322 18.9368C2.74818 18.7586 2.57497 18.5705 2.41341 18.3733C1.85723 17.6952 1.5163 16.8933 1.43063 16.6645C1.43049 16.6636 1.43049 16.6626 1.43063 16.6616C1.29278 16.264 1.00317 15.3091 1.04274 14.3843C1.11275 12.7526 1.68676 11.7511 1.83853 11.5002C2.24047 10.816 2.76324 10.2038 3.38358 9.69092C3.93099 9.24835 4.55146 8.89621 5.21954 8.64896C5.94176 8.35866 6.71513 8.20305 7.49819 8.1905V10.8954C7.49819 10.8954 6.06577 10.4411 4.91949 11.2455C4.11805 11.8407 3.69276 12.4213 3.56752 13.4582C3.5623 14.2213 3.75755 15.3012 4.82861 16.0214C4.95355 16.1006 5.07618 16.1709 5.19649 16.2323C5.38361 16.4756 5.61135 16.6875 5.87052 16.8596C6.91679 17.5219 7.79346 17.5681 8.91452 17.138C9.66204 16.8504 10.2247 16.2023 10.4857 15.4842C10.6496 15.0357 10.6474 14.5844 10.6474 14.1176V0.838867H13.2566C13.3644 1.45195 13.6627 2.3247 14.4516 3.18911C14.768 3.51549 15.1244 3.80405 15.513 4.04851C15.6278 4.16729 16.2149 4.75454 16.9685 5.11506C17.3582 5.30141 17.7689 5.44419 18.1926 5.54059Z" fill="white"/>
<path d="M5.21954 8.64896C4.55146 8.89621 3.93099 9.24835 3.38358 9.69092C2.76304 10.205 2.24036 10.8185 1.83892 11.504C1.68716 11.7541 1.11314 12.7565 1.04313 14.3882C1.00356 15.313 1.29317 16.2679 1.43102 16.6655C1.43088 16.6665 1.43088 16.6674 1.43102 16.6684C1.518 16.8951 1.85762 17.697 2.4138 18.3772C2.57536 18.5744 2.74857 18.7625 2.93259 18.9407C2.343 18.5499 1.81719 18.0774 1.37232 17.5386C0.82092 16.8664 0.480863 16.0728 0.392152 15.8386C0.392047 15.8369 0.391985 15.8357 0.39209 15.834L0.392152 15.8307C0.253867 15.4335 -0.0366166 14.4782 0.00382505 13.5521C0.073837 11.9204 0.647847 10.9189 0.799612 10.668C1.20093 9.98239 1.72359 9.36892 2.34422 8.85497C2.89152 8.41225 3.51202 8.0601 4.18019 7.81302C4.59696 7.64728 5.03113 7.52502 5.47519 7.44833C6.14442 7.33637 6.82793 7.32666 7.50032 7.41957V8.19062C6.71653 8.20291 5.94244 8.3584 5.21954 8.64896Z" fill="white"/>
<path d="M13.2586 0.838567H10.6494V14.1177C10.6494 14.5845 10.6494 15.0346 10.4877 15.4843C10.2242 16.202 9.66363 16.8501 8.91654 17.1377C7.79505 17.5695 6.91838 17.5216 5.87255 16.8593C5.61292 16.688 5.3846 16.4767 5.19678 16.2341C6.0878 16.6897 6.88533 16.6817 7.87332 16.3016C8.61997 16.014 9.18137 15.3659 9.44402 14.6478C9.6084 14.1994 9.60623 13.748 9.60623 13.2816V0H13.209C13.209 0 13.1686 0.330092 13.2586 0.838567ZM18.1925 4.80134L18.1926 5.54059C17.7697 5.44404 17.3595 5.30096 16.9705 5.11476C16.2169 4.75424 15.6299 4.16699 15.5151 4.04821C15.6483 4.13204 15.7865 4.2083 15.929 4.27661C16.8453 4.71506 17.7476 4.84593 18.1925 4.80134Z" fill="white"/>
</svg>
